<?xml version="1.0" encoding="UTF-8"?>
<svg width="20px" height="20px" viewBox="0 0 20 20" version="1.1" xmlns="http://www.w3.org/2000/svg" xmlns:xlink="http://www.w3.org/1999/xlink">
    <title>logo</title>
    <g id="logo" stroke="none" stroke-width="1" fill="none" fill-rule="evenodd">
        <path d="M5.0965555,9.10381264 C5.19189121,9.55897374 5.26428042,9.97319639 5.3693779,10.3791073 C5.4301037,10.613573 5.54965366,10.6793226 5.81360173,10.6743603 C6.52190039,10.6609623 7.23007228,10.6395006 7.93824416,10.6208923 C8.40871067,10.6083626 8.87917717,10.5967014 9.34951689,10.5806981 C9.45030398,10.5772246 9.48263191,10.6112159 9.47718053,10.7094682 C9.45892476,11.039829 9.46222094,11.0471483 9.12816564,11.0679897 C8.01747929,11.1369648 6.90628585,11.2001093 5.79521918,11.2663551 C5.51745251,11.2828545 5.24006617,11.3053087 4.96217272,11.3190789 C4.85022933,11.3246614 4.82753639,11.3750281 4.87165451,11.4622394 C5.04394338,11.8032691 5.20976666,12.1480204 5.39676156,12.4811105 C5.54648426,12.7478307 5.68568453,12.7941035 5.98982065,12.741876 C7.06044571,12.557653 8.13132433,12.3751668 9.20220294,12.1928046 C9.40288967,12.1585652 9.42152578,12.1765533 9.40529842,12.3760351 C9.38159127,12.6696755 9.38070384,12.6655816 9.08087811,12.7243841 C7.86674238,12.9620752 6.65298699,13.2023715 5.43935836,13.4426678 C5.39625445,13.4511036 5.35492541,13.4684714 5.28710014,13.489685 C5.32741497,13.5595284 5.35238989,13.6235413 5.39485992,13.6729155 C5.60682973,13.9187943 5.82222251,14.1619439 6.03875627,14.4042251 C6.29142125,14.6870725 6.58731691,14.7321048 6.9406422,14.5870835 C7.66250592,14.290838 8.39108877,14.0103476 9.11700933,13.7234063 C9.15909903,13.7067828 9.20309037,13.6753967 9.24327843,13.6792424 C9.28093096,13.6829641 9.34355841,13.722662 9.3452065,13.749458 C9.35205242,13.862597 9.34913656,13.9780931 9.33062724,14.0896193 C9.3239081,14.1296894 9.26952111,14.175466 9.22591009,14.1943225 C8.49605947,14.5094245 7.76430721,14.8205567 7.03356916,15.1335497 C6.97157559,15.1600977 6.91338531,15.1948333 6.81678185,15.2445798 C6.90336999,15.3012733 6.9544608,15.3496551 7.01544016,15.3721092 C7.47360937,15.5409493 7.93127147,15.7122705 8.39565272,15.8631225 C8.47957857,15.8904148 8.61383457,15.8548107 8.69015384,15.8010945 C8.85331482,15.6863428 8.99631838,15.5433064 9.14135036,15.4054803 C9.17545316,15.3732257 9.18496138,15.316036 9.20575267,15.2702593 C9.23123469,15.2879993 9.25684349,15.3057393 9.2823255,15.3234793 C9.25380086,16.5471667 9.16556462,17.7675046 9.05425511,19 L1.00206437,19 C1.00206437,18.9119203 0.995852339,18.8230963 1.00498023,18.7357609 C1.00878351,18.6990404 1.03616717,18.6505345 1.06760767,18.6326705 C1.63772027,18.3085124 1.87225625,17.7864852 1.94147606,17.1809683 C1.99041168,16.7537198 2.02603579,16.3225015 2.02679645,15.89302 C2.03300848,11.9326594 2.03275493,7.97229876 2.02781066,4.01206222 C2.02717678,3.47279122 2.00169476,2.93265182 1.85476114,2.40653075 C1.74991721,2.0313857 1.55328732,1.71777238 1.22772602,1.48678029 C0.987485109,1.31620343 0.988372543,1.31496287 1.01068515,1.00581556 L1.15521003,1.00581556 C3.89078701,1.00581556 6.62649076,0.989440184 9.36194096,1.01164619 C11.1608953,1.02616073 12.9067305,1.34138678 14.5268036,2.14526902 C16.8954902,3.32057463 18.3385838,5.19840881 18.8122197,7.7524717 C19.2185374,9.94367109 18.9777894,12.0751996 17.9694115,14.0893712 C16.9818248,16.0621081 15.3788665,17.3855365 13.309752,18.1912796 C12.5605046,18.4831831 11.7832397,18.6780749 10.9898742,18.8137921 C10.9415725,18.8221038 10.8922565,18.8248331 10.8155569,18.8331448 C10.7432945,17.6549859 10.6720463,16.4925821 10.6006713,15.3301783 C10.6182932,15.3252161 10.6357883,15.3203779 10.6534102,15.3154157 C10.6858649,15.3425839 10.7200945,15.3680154 10.7506475,15.3970445 C10.8414193,15.4835114 10.933332,15.5689859 11.020047,15.6591746 C11.2223818,15.8694493 11.4442401,15.9252745 11.728726,15.8060568 C12.0904185,15.6545845 12.4663099,15.5359871 12.8342145,15.3979128 C12.9110409,15.3690078 12.9791197,15.3175246 13.0928379,15.2528915 C12.992558,15.1991753 12.9327196,15.1610901 12.8680637,15.1333016 C12.1559618,14.8272557 11.4444937,14.5195971 10.7289688,14.2211186 C10.6089117,14.171 10.5618778,14.1083518 10.5584548,13.9826831 C10.5492001,13.6288757 10.5446362,13.6282554 10.8764095,13.7590103 C11.5697486,14.0323055 12.262327,14.3073374 12.9561732,14.5796401 C13.3755489,14.7441382 13.5706575,14.708038 13.8775826,14.3869813 C14.0951306,14.1594628 14.2969583,13.9174297 14.5024626,13.6791183 C14.54582,13.6287516 14.5743447,13.5662275 14.6232803,13.4877001 C14.506773,13.4589191 14.4166351,13.4326193 14.3247223,13.4146312 C13.1008248,13.1732184 11.8768006,12.932674 10.6526495,12.6933701 C10.5669488,12.6766226 10.5126886,12.6580142 10.5068569,12.5482247 C10.4861924,12.1620387 10.4809945,12.1574486 10.8682958,12.2223299 C11.8800967,12.3917902 12.8912638,12.5648482 13.9021772,12.7388987 C14.222921,12.7941035 14.3510918,12.7546538 14.5071533,12.477885 C14.6950356,12.1451671 14.860225,11.8000436 15.0327674,11.459138 C15.0799282,11.3660961 15.0434166,11.3249095 14.9376853,11.3189548 C14.5335227,11.2957564 14.1298673,11.2656108 13.7258315,11.241668 C12.6754907,11.1793919 11.6251498,11.1181083 10.5745554,11.0595539 C10.4797268,11.0543436 10.4427081,11.024198 10.43713,10.9279306 C10.4168458,10.5805741 10.4135496,10.578093 10.7730869,10.5872731 C11.8404158,10.6150616 12.9077447,10.6439667 13.9749468,10.6746085 C14.3853214,10.6863938 14.4973915,10.613573 14.5851207,10.2177106 C14.6567492,9.89429684 14.7046706,9.56579681 14.7652696,9.24002602 C14.7860609,9.12812759 14.7439712,9.10294425 14.6332956,9.11783095 C13.6810795,9.24672503 12.7286099,9.37363422 11.7756331,9.49620145 C11.354229,9.55041388 10.9311768,9.5917245 10.5093924,9.6432077 C10.4238185,9.65362839 10.395167,9.63266294 10.3869266,9.54582381 C10.3557396,9.21521484 10.3521899,9.21434644 10.7043742,9.16149863 C11.6492373,9.01982679 12.5943539,8.87951957 13.539217,8.73809584 C13.8894996,8.68562019 13.9881315,8.59791267 14.0325032,8.26172118 C14.0674934,7.99686183 14.0821994,7.72939731 14.1038782,7.46304928 C14.1070476,7.4255844 14.0988071,7.38725113 14.09437,7.33130192 C13.8143213,7.40821658 13.5487252,7.4832704 13.281988,7.55398226 C12.360325,7.79837239 11.4382817,8.04164601 10.5161115,8.28429935 C10.3423014,8.33007598 10.3349483,8.32623025 10.3325396,8.15093926 C10.328356,7.82777363 10.2713067,7.90853403 10.5825423,7.8239279 C11.3079557,7.62655496 12.0360315,7.43898244 12.7623324,7.24458684 C13.2098524,7.1248729 13.3013848,7.01160986 13.3157105,6.55806148 C13.3224296,6.34208016 13.3167247,6.12585072 13.3167247,5.88344549 C13.2398983,5.91185429 13.1855113,5.93071079 13.1321386,5.95192435 C12.2336756,6.30846101 11.3350858,6.66450145 10.4376371,7.023023 C10.327215,7.0671869 10.2727012,7.04895069 10.2772652,6.92377828 C10.27904,6.87440403 10.27904,6.82428545 10.2721941,6.77540742 C10.2586291,6.68075277 10.3013526,6.63584453 10.3902228,6.60061266 C11.0080032,6.35572631 11.6221072,6.10165982 12.240775,5.85888242 C12.4465328,5.77812203 12.5712806,5.65046851 12.5722948,5.42977306 C12.5734358,5.19518335 12.5653221,4.96059364 12.5606314,4.69350129 C12.4756914,4.72984967 12.4303055,4.74572882 12.3882158,4.76781077 C11.7244156,5.11541541 11.0612492,5.46413655 10.3973222,5.81174118 C10.2653482,5.88084032 10.2619252,5.86607767 10.2336542,5.72378555 C10.1939732,5.52442771 10.2687712,5.42456271 10.4532305,5.33821981 C10.8128946,5.17 11.1551904,4.96642427 11.5102905,4.78840405 C11.7590255,4.66385193 11.8893514,4.48818877 11.8496705,4.20620971 C11.8252026,4.0326555 11.8134125,3.85736451 11.7922408,3.64535298 C11.7034975,3.69671212 11.6522799,3.72164736 11.6062601,3.75340567 C11.1925894,4.03823802 10.7805667,4.32530337 10.365755,4.60852299 C10.3245527,4.63668368 10.2681373,4.64363081 10.2188213,4.66050242 C10.207665,4.61484985 10.1949874,4.5696935 10.1857327,4.52379281 C10.1570813,4.38224503 10.2074115,4.28759038 10.3360893,4.20546537 C10.5646668,4.05969969 10.7775241,3.89036338 11.0000163,3.7352935 C11.1204537,3.65143172 11.1704035,3.54722476 11.142386,3.40344397 C11.1105652,3.24055857 11.0854635,3.07643261 11.0514875,2.87744695 C10.7415196,3.15086615 10.4642601,3.39562845 10.1868737,3.64026668 C10.1747032,3.63344361 10.1624059,3.62662054 10.1501086,3.61979746 C10.1612649,3.42527781 10.1843382,3.23026193 10.1797743,3.03599039 C10.1762245,2.88526247 10.1517567,2.73143315 10.1092867,2.58678397 C10.0905238,2.52289518 10.0040624,2.47798694 9.94840769,2.42451885 C9.89389392,2.47972373 9.81529267,2.52624469 9.79019098,2.59211837 C9.74886194,2.70079134 9.72540834,2.8218699 9.72439413,2.93786217 C9.72249249,3.16401608 9.74125537,3.39029404 9.72160506,3.64411242 C9.44396517,3.39910201 9.16632527,3.15409161 8.87296513,2.89518694 C8.78168626,3.1161305 8.75189386,3.334717 8.76482503,3.55429594 C8.76850154,3.61731634 8.84722956,3.68802821 8.90820892,3.73405295 C9.14071648,3.90909582 9.38057706,4.07495856 9.61663436,4.24565948 C9.7128575,4.31525484 9.76813192,4.53470973 9.70106731,4.62613893 C9.68496673,4.64809683 9.59254688,4.64449921 9.55755665,4.62092858 C9.13729352,4.33684057 8.72121401,4.04667382 8.30373997,3.75874007 C8.25632567,3.72611337 8.20637584,3.69720834 8.12866203,3.64833032 C8.06121708,3.9558649 8.00619621,4.23883641 8.09329146,4.51634946 C8.12371775,4.61336117 8.24694423,4.69933191 8.34785809,4.75565329 C8.73845558,4.97349546 9.13716675,5.17744336 9.53283529,5.38647755 C9.65314591,5.45011823 9.73288814,5.70678989 9.65428689,5.81397419 C9.63831309,5.83580803 9.55388014,5.83171418 9.51546695,5.81223741 C9.02205395,5.56201665 8.53092293,5.307578 8.04017223,5.05239501 C7.86623528,4.9618342 7.69521418,4.86569088 7.52229143,4.77314518 C7.47956785,4.75031889 7.43468907,4.73121428 7.36546927,4.69846352 C7.31463201,5.02311782 7.27621882,5.32879156 7.38131629,5.62131537 C7.41617975,5.71820303 7.54866088,5.80429783 7.65654743,5.8499504 C8.25911474,6.10438905 8.86814764,6.34406505 9.47375757,6.59168063 C9.53017299,6.61475503 9.61650758,6.65259208 9.62233929,6.69278619 C9.63742566,6.79810965 9.61891633,6.90889157 9.60230865,7.0157037 C9.60091411,7.02401545 9.50354998,7.03356775 9.46044607,7.01756454 C8.94129751,6.82465762 8.42151506,6.63286719 7.90680367,6.42891929 C7.50454276,6.26950746 7.10925455,6.09322402 6.71054338,5.92525233 C6.67897611,5.91197835 6.64487331,5.90416283 6.58186553,5.88406577 C6.58186553,6.10463716 6.57223054,6.31032185 6.5836404,6.51501409 C6.61393992,7.05205208 6.66579138,7.11321164 7.20078697,7.25748866 C7.94077969,7.4570946 8.68229372,7.65161425 9.42228643,7.85109614 C9.47616632,7.86561068 9.56414901,7.8984855 9.56731841,7.92962353 C9.5791086,8.04536769 9.56541677,8.16446135 9.54931619,8.28070173 C9.54817521,8.28913753 9.44878266,8.29707711 9.40035415,8.28491963 C8.88640341,8.15627366 8.37245267,8.02750364 7.86065713,7.89091809 C7.21726788,7.71922472 6.57603383,7.54021206 5.93378557,7.36479701 C5.89613304,7.35450037 5.85759307,7.34730513 5.7897678,7.33204625 C5.80967166,7.59653343 5.81727824,7.84328062 5.84871873,8.08717452 C5.92174183,8.6552265 5.96192989,8.68425558 6.54510044,8.76836548 C7.49566843,8.90569536 8.44522221,9.05059265 9.39566343,9.18903904 C9.5050713,9.2049182 9.53689212,9.25168727 9.52789101,9.35701073 C9.50177512,9.66305664 9.50570518,9.66032741 9.19320183,9.62187008 C8.15908832,9.49446467 7.12472125,9.37065688 6.09073451,9.24238308 C5.85493077,9.21322994 5.62090189,9.17129905 5.38598558,9.13681151 C5.30852532,9.12539836 5.2303044,9.11894746 5.0965555,9.10381264" id="Fill-1" fill="#ffffff"></path>
    </g>
</svg>